<?xml version="1.0" encoding="utf-8"?>
<svg xmlns="http://www.w3.org/2000/svg" xmlns:xlink="http://www.w3.org/1999/xlink" version= "1.1" width="1452px" height="1453px" viewBox="-186 337 1452 1453">
<g id="layer1">
<g style="fill:rgb(255,255,255); fill-opacity:1.0; stroke-linejoin: miter">
<path d="M-186.001,336.01663C-186.26154,336.01663,-186.51141,336.12015,-186.69563,336.30438C-186.87985,336.48862,-186.98335,336.73846,-186.98335,336.999L-186.98235,1790.0C-186.98235,1790.5425,-186.54254,1790.9823,-186.0,1790.9823L1266.001,1790.9833C1266.2615,1790.9833,1266.5114,1790.8798,1266.6956,1790.6956C1266.8798,1790.5114,1266.9833,1790.2615,1266.9833,1790.001L1266.9823,337.0C1266.9823,336.45746,1266.5425,336.01764,1266.0,336.01764L-186.001,336.01663 Z"/>
</g>
</g>
<g id="layer2">
<g>
<g style="fill:rgb(0,126,247); fill-opacity:1.0; stroke-linejoin: miter">
<path d="M354.97745,770.23517C352.6905,770.4759,349.68146,770.9576,348.35742,771.3184C347.03348,771.6193,343.12164,772.3414,339.63116,772.88324C336.14075,773.4849,332.46964,774.2675,331.38638,774.68854C330.36325,775.1097,327.95605,775.832,326.0302,776.1928C324.10437,776.61456,321.1555,777.5776,319.47046,778.2996C317.8456,779.0816,315.49863,779.8642,314.35507,780.10516C313.21173,780.34576,311.40625,781.00775,310.3831,781.6097C309.35995,782.1512,307.49435,782.9937,306.17044,783.415C304.90665,783.83655,302.7402,784.79956,301.41614,785.5216C300.0922,786.30383,297.98587,787.20667,296.78226,787.56775C295.57858,787.9889,294.2546,788.65063,293.89352,789.13245C293.5324,789.61383,292.20856,790.27594,291.00482,790.69696C289.8012,791.0584,287.9356,792.02155,286.8524,792.8034C285.82916,793.58575,284.6858,794.248,284.38486,794.248C284.08398,794.248,282.75995,795.02997,281.49625,795.9328C280.23248,796.8958,278.66772,797.7983,278.0057,798.03937C277.4039,798.27997,276.2003,799.00226,275.29752,799.7243C274.45502,800.3864,271.80704,802.19196,269.46,803.7569C264.34457,807.1269,263.86316,807.5483,252.18799,817.11676C241.05449,826.3245,228.29607,838.78204,220.59286,848.11096C219.20871,849.73584,217.40329,851.9026,216.50055,852.9252C212.40839,857.6793,207.05223,864.5398,206.26976,865.9845C205.78831,866.94727,205.18648,867.66956,204.94576,867.66956C204.64488,867.66956,203.86256,868.75305,203.08018,870.0769C202.35805,871.401,201.51547,872.4845,201.27478,872.4845C201.03409,872.4845,200.0712,873.74805,199.16846,875.313C198.26572,876.93835,196.88165,879.1647,196.09921,880.3085C195.25665,881.4513,194.0531,883.19666,193.39108,884.2196C192.72913,885.1824,191.46529,886.98773,190.6829,888.13116C189.90056,889.27435,188.5164,891.441,187.6739,892.94525C186.83134,894.45026,185.2065,897.15826,184.06306,898.96405C182.9196,900.7696,181.29471,903.65826,180.45212,905.4034C179.60968,907.08905,178.5264,908.77374,178.04492,909.1951C177.56348,909.55597,176.90155,910.88055,176.4802,912.08356C176.11914,913.2873,175.27667,914.85223,174.67477,915.5142C174.07294,916.1761,173.17035,917.9216,172.6287,919.4257C172.08705,920.8703,171.30467,922.55536,170.76308,923.0966C170.2816,923.63824,169.31871,925.56433,168.65672,927.3097C167.9345,929.11536,167.03185,930.9806,166.55034,931.46216C166.12914,932.0039,165.34682,933.6283,164.80522,935.01294C164.32365,936.45764,163.3608,938.50354,162.75902,939.52673C162.1572,940.5497,161.31467,942.47534,160.89331,943.7993C160.47208,945.12354,159.74994,946.6282,159.3287,947.17017C158.84726,947.7118,158.06494,949.5773,157.52332,951.38245C156.98166,953.18835,156.01874,955.47485,155.41693,956.5582C154.75497,957.5808,153.79211,959.86816,153.31061,961.6737C152.76898,963.41833,151.86626,965.64557,151.26442,966.6679C150.66267,967.63153,149.94048,969.55756,149.69975,970.8814C149.51924,972.2054,148.67668,974.49225,147.95451,975.9969C147.23232,977.5015,146.26942,980.20953,145.84813,982.0153C145.4269,983.8204,144.58434,986.2879,143.98256,987.4913C143.38075,988.69403,142.35764,991.6436,141.69568,994.111C141.03366,996.5789,140.01062,1000.18976,139.34863,1002.1757C138.14505,1005.907,137.00157,1010.0597,134.95546,1018.4243C134.29338,1021.0724,133.08986,1025.4052,132.30753,1028.0537C131.465,1030.7012,130.5622,1034.9138,130.20114,1037.3813C129.84012,1039.8488,129.0578,1043.58,128.39575,1045.626C127.7338,1047.7324,126.83105,1052.4269,126.34965,1056.1581C125.80804,1059.8894,125.02565,1065.0049,124.48398,1067.4723C123.94237,1069.9397,123.160065,1075.6567,122.61842,1080.1097C122.13695,1084.5637,121.23427,1092.3271,120.5723,1097.2618C118.58631,1111.8857,117.984474,1124.7046,117.984474,1149.9211C117.98446,1168.7576,118.164955,1174.956,118.88723,1179.7106C119.42884,1183.0204,120.21128,1188.9786,120.5723,1192.9501C120.933395,1196.922,121.775894,1202.3987,122.43793,1205.1068C123.03967,1207.8751,123.82199,1211.9073,124.18317,1214.134C124.54422,1216.4208,125.446884,1220.3926,126.2293,1223.0404C127.011635,1225.6887,127.85418,1228.8177,128.03474,1229.9617C128.21529,1231.1053,129.05785,1233.6927,129.90031,1235.6791C130.68272,1237.6644,131.40492,1239.8318,131.40492,1240.4934C131.40492,1241.1555,132.24745,1243.3223,133.21036,1245.3079C134.17325,1247.2944,135.01578,1249.3405,135.01578,1249.8218C135.01578,1250.7245,135.91843,1252.7704,141.33472,1263.6632C145.42705,1271.9081,147.47319,1275.6996,148.55647,1276.9033C149.03795,1277.4452,149.45924,1278.1671,149.45924,1278.5283C149.45924,1278.8895,150.18135,1280.0929,151.14433,1281.2966C152.04692,1282.5004,153.73209,1284.8472,154.87555,1286.5325C160.47235,1294.7769,174.55466,1309.6415,182.37822,1315.5995C190.08142,1321.4369,191.2248,1322.1592,199.34926,1327.0348C210.66333,1333.7145,225.58824,1339.3114,241.83702,1342.8619C254.23428,1345.5695,264.2847,1346.2915,283.66296,1345.9304C296.96292,1345.6903,300.09244,1345.4493,307.43436,1344.0645C316.1607,1342.3796,324.46576,1340.0928,332.71045,1337.0239C337.64536,1335.218,352.44992,1327.9371,354.07486,1326.5526C354.55624,1326.1312,355.51913,1325.6498,356.2413,1325.4089C356.90326,1325.2285,357.98663,1324.5063,358.70874,1323.9045C359.79202,1322.8811,361.05576,1321.9788,367.01373,1318.067C371.40707,1315.1184,383.1423,1305.0071,391.92877,1296.4609C399.3311,1289.2396,417.62628,1268.6578,424.48694,1259.751C425.63037,1258.2463,427.3155,1256.1404,428.27832,1255.1174C429.1811,1254.0342,429.90308,1252.9508,429.90308,1252.7102C429.90308,1252.4093,430.38458,1251.7472,430.9864,1251.1453C431.64838,1250.4836,433.03265,1248.6783,434.17603,1247.1135C435.31952,1245.5492,436.94434,1243.262,437.8471,1242.0583C442.66135,1235.738,454.2764,1218.947,459.2112,1211.2438C459.93332,1210.1008,461.0768,1208.355,461.79898,1207.392C462.46103,1206.3699,464.2063,1203.6615,465.71082,1201.3746C467.1552,1199.0276,468.8404,1196.4999,469.50232,1195.6571C470.10406,1194.815,471.24756,1193.0696,471.96985,1191.7455C472.69196,1190.4214,474.016,1188.1947,474.91864,1186.8708C475.82135,1185.4862,477.32587,1183.0186,478.2887,1181.4541C479.3119,1179.8296,480.69617,1177.7241,481.47845,1176.821C482.26086,1175.8579,482.8626,1174.7745,482.8626,1174.3535C482.86267,1173.932,483.7052,1172.428,484.66815,1171.1034C485.6911,1169.7194,486.4735,1168.3953,486.4735,1168.1547C486.4735,1167.854,487.43646,1166.3497,488.57996,1164.7249C489.72333,1163.1001,490.68634,1161.5349,490.68634,1161.2343C490.68634,1160.9937,491.52887,1159.6095,492.4917,1158.2251C493.51483,1156.9012,494.297,1155.5168,494.297,1155.216C494.297,1154.9147,495.25995,1153.3502,496.4034,1151.6652C497.54697,1149.9799,498.50998,1148.2948,498.50998,1147.9342C498.50998,1147.633,499.1719,1146.4296,500.01437,1145.3462C500.85684,1144.2632,501.5189,1143.1194,501.5189,1142.8188C501.5189,1142.5779,502.48184,1140.953,503.62534,1139.328C504.7686,1137.7028,505.73154,1136.0778,505.73154,1135.7169C505.73154,1135.3557,506.57407,1134.0319,507.53702,1132.7677C508.5601,1131.504,509.34244,1130.1798,509.34244,1129.759C509.34244,1129.398,510.30533,1127.7131,511.4487,1126.088C512.5922,1124.463,513.5551,1122.8982,513.5551,1122.597C513.5551,1122.116,515.2402,1119.2871,518.7308,1113.9305C519.6935,1112.366,520.89716,1110.2594,521.31854,1109.1763C521.7397,1108.0931,522.462,1106.8894,522.9433,1106.5282C523.4246,1106.167,524.32733,1104.7227,524.9895,1103.3389C525.6515,1102.0145,527.2763,1099.1255,528.6004,1096.9597C529.8642,1094.7933,531.6697,1091.8441,532.51227,1090.34C533.35486,1088.8348,534.97955,1086.1268,536.12305,1084.3213C537.2664,1082.5161,539.0118,1079.5068,540.035,1077.7015C541.84033,1074.512,543.6457,1071.5026,548.15936,1063.98C549.303,1062.1145,550.68695,1059.5869,551.22864,1058.4432C551.77026,1057.2998,552.673,1055.7955,553.27466,1055.1334C553.8766,1054.4713,554.89954,1052.5454,555.50134,1050.9205C556.52435,1048.0924,556.7653,1047.9119,558.691,1047.9119C560.4965,1047.9119,560.85754,1048.2122,562.3621,1050.9203C563.2649,1052.5454,564.7093,1055.1938,565.5518,1056.7584C566.39435,1058.3232,567.3573,1059.7072,567.71844,1059.9484C568.0194,1060.1285,568.86176,1061.4524,569.52374,1062.8368C570.18567,1064.2203,571.6901,1066.8682,572.83356,1068.6737C573.9769,1070.479,575.48175,1073.0668,576.08344,1074.3907C576.74554,1075.715,577.9492,1077.7012,578.7917,1078.8446C579.6943,1079.9883,580.35645,1081.252,580.35645,1081.6732C580.35645,1082.0942,581.0183,1083.1777,581.8008,1084.141C582.5831,1085.0435,583.3654,1086.4274,583.60626,1087.1497C583.8468,1087.8717,584.80994,1089.4366,585.77277,1090.6406C586.7958,1091.9039,587.578,1093.2279,587.578,1093.6489C587.578,1094.0704,588.1799,1095.1538,588.9023,1096.1172C589.6846,1097.0197,590.88806,1099.0055,591.6102,1100.5707C592.3927,1102.0747,593.95734,1104.7833,595.10077,1106.5885C596.24426,1108.3944,597.6285,1110.8613,598.17017,1112.0051C598.71173,1113.1484,599.67456,1114.7732,600.2765,1115.5555C600.9383,1116.3378,602.0216,1118.1431,602.62354,1119.4674C603.2854,1120.8513,604.7899,1123.4395,605.9334,1125.2444C607.07684,1127.0502,608.46106,1129.5176,609.0027,1130.6613C609.5444,1131.8044,610.50714,1133.4291,611.1089,1134.2117C611.77094,1134.9937,612.8542,1136.7992,613.456,1138.1234C614.1179,1139.5074,615.62256,1142.0955,616.766,1143.901C617.90955,1145.7065,619.29364,1148.1136,619.8352,1149.257C620.3167,1150.3402,621.27954,1151.9651,621.9416,1152.868C622.54333,1153.7104,623.6869,1155.5763,624.40906,1156.9603C626.2747,1160.3911,628.74225,1164.604,631.2096,1168.5756C632.353,1170.3813,633.7973,1173.0293,634.4593,1174.3533C635.12134,1175.7373,635.9038,1177.0615,636.2648,1177.3019C636.6259,1177.4823,637.649,1178.9266,638.4916,1180.4916C640.4173,1183.982,642.82465,1188.1339,644.5699,1190.9027C645.2922,1191.9858,646.5559,1194.1525,647.4586,1195.6569C648.36127,1197.1615,649.6252,1199.2682,650.34735,1200.4116C652.21277,1203.2396,653.77765,1205.8275,655.8238,1209.2576C656.84686,1210.8827,658.23096,1212.9888,659.0135,1213.8915C659.7957,1214.8542,660.3975,1215.8773,660.3975,1216.1782C660.3974,1216.7201,662.26306,1219.6687,665.81384,1224.8446C666.5362,1225.8076,668.4018,1228.6964,670.0266,1231.224C671.6515,1233.7512,673.39685,1236.1593,673.87836,1236.5803C674.4199,1237.0021,674.8411,1237.6635,674.8411,1238.0247C674.8411,1238.3859,676.2255,1240.5526,677.8504,1242.8994C679.4752,1245.1865,682.3039,1249.2795,684.16956,1251.9272C685.9751,1254.5751,688.44257,1257.9451,689.5858,1259.45C690.72955,1260.9543,692.35425,1263.121,693.19666,1264.2642C698.4323,1271.4259,700.29803,1273.833,706.617,1281.4154C715.70435,1292.3082,717.2091,1293.9331,725.6947,1302.5392C736.16614,1313.1915,748.26276,1323.4825,755.7853,1328.1764C757.4702,1329.2599,760.1784,1330.9448,761.8032,1331.9679C763.4883,1333.051,765.65497,1334.315,766.6179,1334.796C767.64087,1335.338,770.59,1336.8428,773.2378,1338.2268C784.5521,1344.0643,795.7458,1347.8552,809.9487,1350.6832C819.39746,1352.5505,822.5871,1352.8516,834.6231,1353.3326C842.2661,1353.6332,851.4737,1353.7537,855.0847,1353.5729C868.3846,1352.9707,885.8376,1349.2396,898.897,1344.3046C903.95215,1342.3788,916.83093,1336.0596,919.7197,1334.1342C921.40485,1332.9907,922.7892,1332.0275,926.70087,1329.4392C930.7932,1326.7915,941.5656,1317.1625,946.8017,1311.5052C951.3754,1306.6307,952.87994,1304.7656,958.4167,1297.423C959.3194,1296.219,960.6434,1294.1727,961.3658,1292.8495C962.0878,1291.5255,963.2913,1289.6594,964.0738,1288.7567C964.85626,1287.7937,965.5181,1286.7104,965.5181,1286.2898C965.5181,1285.8683,966.3005,1284.4839,967.2636,1283.16C968.2264,1281.8962,969.1893,1280.151,969.43,1279.3685C969.6707,1278.5863,970.6337,1276.7207,971.59686,1275.2163C972.55963,1273.7117,973.342,1272.207,973.342,1271.9061C973.342,1271.5455,974.1243,1269.6798,975.0872,1267.6339C977.1335,1263.2408,979.17975,1258.366,980.38324,1254.634C980.92487,1253.13,981.8276,1250.5421,982.4898,1248.9176C983.1517,1247.2325,984.05426,1244.2834,984.5356,1242.2972C985.0173,1240.3113,985.91974,1237.1812,986.5817,1235.3762C987.2436,1233.5704,988.3267,1229.2377,988.9288,1225.7467C989.5909,1222.2559,990.49335,1218.0428,990.9749,1216.3585C991.4565,1214.6735,992.17865,1210.4602,992.5999,1207.0297C992.9611,1203.5994,993.8035,1197.7618,994.4654,1194.151C996.3914,1182.837,996.9329,1167.0692,996.632,1136.4977C996.45184,1120.8502,996.0306,1106.7075,995.7297,1105.0824C995.36847,1103.3976,994.82684,1097.4391,994.40546,1091.8417C994.0444,1086.1849,993.2017,1078.9028,992.60016,1075.593C991.9986,1072.283,991.1558,1066.5657,990.79486,1062.9552C990.43365,1059.284,989.5914,1054.0483,988.98944,1051.2201C988.3272,1048.3916,987.5451,1043.9983,987.184,1041.3505C986.76263,1038.7627,986.10065,1035.573,985.6192,1034.2489C985.1978,1032.9249,984.3554,1029.4946,983.87396,1026.546C983.39264,1023.59705,982.55,1020.04614,982.00836,1018.60144C981.5269,1017.15735,980.6844,1013.84766,980.2028,1011.25964C979.6613,1008.6113,978.87885,1005.7229,978.4576,1004.82007C977.976,1003.9779,977.19366,1001.3301,976.7122,998.98303C976.2309,996.6354,975.4484,993.98706,974.96686,993.02454C974.48553,992.12134,973.7631,989.7146,973.342,987.7285C972.92084,985.7423,972.07806,983.0946,971.4765,981.89087C970.8143,980.6271,970.0319,978.2196,969.67096,976.47437C969.3099,974.7289,968.347,972.02075,967.56464,970.45593C966.78217,968.8915,966.1203,967.14575,966.1203,966.5443C966.1203,965.942,965.27765,963.7158,964.315,961.6698C963.29156,959.56335,962.50934,957.33655,962.50934,956.7948C962.50934,956.19324,961.727,954.2073,960.7038,952.34094C959.7409,950.4758,958.89825,948.67004,958.89825,948.30884C958.89825,947.9479,957.93524,945.5408,956.732,943.0133C955.52814,940.4856,953.96356,936.9951,953.1811,935.37024C951.3155,931.39795,943.2514,915.1492,941.02454,910.9967C939.3997,907.98755,936.75183,903.4137,933.3816,897.7567C932.6594,896.5532,931.5759,894.68744,930.914,893.60394C928.02527,888.7293,918.69727,874.82794,915.6277,870.73505C913.76196,868.3276,911.7156,865.5589,911.0539,864.6567C903.1098,853.4628,882.16675,831.3765,870.13025,821.4465C866.82025,818.738,863.7509,816.21014,863.3295,815.84894C861.94556,814.7055,855.0849,809.5904,854.0619,808.98895C853.52,808.62775,850.9925,806.94293,848.4649,805.1973C845.99756,803.5127,843.6505,802.06836,843.3496,802.06836C843.10876,802.06836,842.08575,801.40625,841.1229,800.6239C839.5581,799.2999,824.27216,791.29614,818.31415,788.70825C810.5507,785.2776,794.2414,780.04175,786.8392,778.5979C783.64954,777.93604,779.0155,777.03296,776.5481,776.4918C771.07166,775.2881,752.0543,774.50574,741.5827,775.04736C730.56934,775.6492,715.82477,778.59827,705.5339,782.3295C703.72833,782.9913,700.4185,784.1351,698.1918,784.91766C695.96484,785.6999,693.3771,786.72284,692.4744,787.2044C691.5717,787.74603,687.9609,789.4914,684.47034,791.1767C680.9798,792.86115,677.7299,794.4859,677.2485,794.7868C676.767,795.0881,674.2995,796.5328,671.8323,797.91644C666.41595,801.04584,663.82794,802.7309,660.9994,804.7769C652.6342,810.85596,647.6996,814.5873,645.3523,816.45264C630.90894,828.0079,609.7849,848.83044,595.9434,865.2002C592.9341,868.69055,589.7446,872.3618,588.8419,873.38477C587.9392,874.34814,585.83307,876.93555,584.208,879.04224C582.58307,881.20886,580.71735,883.49585,580.0555,884.2781C579.3935,885.0001,577.76855,886.98584,576.44446,888.7313C574.27795,891.5596,573.9169,891.8002,572.23175,891.49927C571.269,891.319,570.18567,890.7167,569.8246,890.1754C568.74133,888.3705,563.8667,881.8104,563.14453,881.2084C562.7835,880.8478,562.12134,880.00525,561.64,879.34314C561.1586,878.62085,559.4133,876.45447,557.72833,874.5287C555.9829,872.5421,552.7932,868.8109,550.5064,866.16284C536.42413,849.61346,517.28625,830.7165,501.81973,818.01855C500.85678,817.23584,498.50986,815.3102,496.70435,813.80615C494.89886,812.3009,492.13055,810.13477,490.62604,809.1117C481.41827,802.73267,478.58966,800.8666,478.10822,800.8666C477.8073,800.8666,476.42316,799.90356,475.03906,798.7604C473.6549,797.61694,472.21057,796.65393,471.84943,796.65393C471.54858,796.65393,470.4051,796.05237,469.38202,795.2698C468.35886,794.4872,466.55344,793.5244,465.40994,793.0431C464.26657,792.62195,462.762,791.77905,462.1,791.2374C461.43796,790.6958,459.81308,789.79333,458.4891,789.2517C457.16507,788.77,454.8782,787.62695,453.37375,786.7844C451.8693,785.9415,450.2443,785.21985,449.76285,785.2201C449.28152,785.2201,447.6566,784.558,446.15195,783.775C444.6475,782.9928,442.2402,782.03,440.73578,781.6092C439.2312,781.248,437.42578,780.52594,436.70367,780.04425C435.98145,779.6236,433.39368,778.72076,430.9864,778.0584C428.57904,777.3963,425.38947,776.4333,423.94516,775.89166C422.44064,775.41034,418.40854,774.4476,414.918,773.7858C411.42737,773.1834,406.91382,772.22076,404.92776,771.7391C397.46542,769.81354,366.412,768.9112,354.97745,770.23517 Z M753.85956,850.27466C774.3215,852.14026,793.94055,860.44476,812.8978,875.1888C821.56415,881.9299,831.0123,891.13727,837.0306,898.66034C838.0537,899.9239,839.67865,901.9096,840.70166,903.1132C842.8681,905.6409,849.1271,914.00616,850.8723,916.7745C851.5343,917.7978,852.6174,919.4827,853.2794,920.566C853.94135,921.64923,855.20526,923.5146,856.16815,924.6574C857.071,925.8614,857.79315,927.1856,857.79315,927.6069C857.79315,928.0285,858.39496,929.111,859.17725,930.07404C859.9593,930.977,861.1631,932.8422,861.8252,934.16656C864.11194,938.6198,866.0982,942.23157,867.3018,944.2175C867.96375,945.30066,868.6862,946.8655,868.9269,947.70825C869.1676,948.5508,869.8899,949.93506,870.5519,950.83765C871.15375,951.74036,872.0564,953.5454,872.53796,954.92993C873.0194,956.3141,873.9823,958.1793,874.6443,959.1426C875.30634,960.0454,875.84796,961.24915,875.84796,961.73035C875.84796,962.21204,876.6303,964.1378,877.593,965.94275C878.55597,967.74854,879.5188,970.15564,879.7595,971.2389C880.00024,972.32227,880.7224,974.00696,881.32416,975.03015C881.98615,976.05383,882.7686,977.9791,883.1297,979.3037C883.4306,980.6272,884.39325,983.3352,885.1757,985.3209C886.981,990.01526,888.90704,995.73267,890.29114,1000.78784C890.9531,1003.01514,891.7355,1005.3613,892.0363,1006.0238C892.39746,1006.6859,893.2401,1009.334,893.84186,1011.9214C894.4438,1014.50916,895.5267,1018.6615,896.18884,1021.1293C899.0777,1031.7814,900.46185,1037.2579,900.82306,1039.7856C901.0638,1041.2899,901.8461,1045.2023,902.62836,1048.5121C903.41077,1051.822,904.3737,1056.8175,904.735,1059.6456C905.0959,1062.4745,905.7576,1066.3859,906.23926,1068.3718C906.6604,1070.3577,907.3827,1074.9319,907.74365,1078.6029C908.1048,1082.2133,908.82697,1088.4724,909.30835,1092.4445C911.1141,1107.1888,912.01654,1125.0627,912.07654,1146.6082C912.13684,1178.9255,910.3314,1195.6564,905.27625,1211.0028C902.44763,1219.3676,901.1237,1222.9786,900.3414,1223.8812C899.8598,1224.4229,899.19794,1225.6865,898.89703,1226.6494C898.3552,1228.214,896.30927,1231.464,890.8928,1239.2277C887.82355,1243.5612,877.653,1251.6257,873.1393,1253.2504C871.81555,1253.6719,870.19055,1254.4543,869.52844,1254.8752C868.86646,1255.2966,865.61664,1256.32,862.3065,1257.1016C857.191,1258.3049,854.7839,1258.5463,846.05774,1258.5468C836.9102,1258.5468,835.1649,1258.3658,829.80865,1256.9218C826.49866,1256.0791,821.7445,1254.3345,819.2771,1253.1307C814.763,1250.9028,808.98566,1247.593,808.4441,1246.8708C808.2636,1246.6902,806.3979,1245.0049,804.2314,1243.2C800.3797,1240.0099,792.9775,1232.6073,789.6072,1228.6355C783.228,1221.2338,775.82587,1211.605,771.1318,1204.684C769.9883,1202.9387,768.3032,1200.6519,767.4003,1199.5686C766.43744,1198.485,765.7153,1197.462,765.7153,1197.3416C765.7153,1196.9806,761.14136,1190.1194,757.28973,1184.7035C755.9657,1182.7777,754.8824,1181.0931,754.8824,1180.9122C754.8824,1180.6113,752.5355,1176.9407,749.4663,1172.4874C747.8414,1170.1997,743.56854,1163.46,741.7632,1160.3907C740.0179,1157.5022,738.27246,1154.7338,736.1059,1151.4841C735.20337,1150.1,733.75903,1147.7528,732.9164,1146.1278C732.0737,1144.5629,731.17096,1143.299,730.8701,1143.299C730.5692,1143.299,730.02747,1142.3961,729.5461,1141.3134C728.8239,1139.5677,726.4167,1135.5957,723.7688,1131.8649C723.16693,1131.0825,722.3246,1129.5775,721.9635,1128.675C721.5423,1127.7118,720.519,1126.1467,719.6765,1125.124C718.8339,1124.1613,718.172,1123.0776,718.172,1122.7168C718.172,1122.356,717.51,1121.2123,716.7274,1120.1888C715.9452,1119.1658,715.1626,1117.7212,714.92194,1116.9988C714.68097,1116.2765,713.7183,1114.7119,712.75555,1113.5085C711.73224,1112.245,710.94995,1110.9807,710.94995,1110.6798C710.94995,1110.1385,707.70013,1105.0834,705.5938,1102.375C704.9919,1101.5322,704.02905,1099.9073,703.48755,1098.7639C703.0061,1097.6208,701.4413,1094.9128,700.11725,1092.7461C698.79333,1090.58,697.22845,1087.7511,696.6267,1086.4275C695.96466,1085.1033,695.06195,1083.6592,694.52026,1083.2378C694.0388,1082.8164,693.2565,1081.6124,692.8354,1080.5292C692.41406,1079.4463,691.4514,1077.7616,690.669,1076.738C689.8865,1075.7151,689.2847,1074.6318,689.2847,1074.2706C689.2847,1073.9701,688.6228,1072.7664,687.7199,1071.6228C686.8775,1070.4791,685.7341,1068.4332,685.1324,1067.1091C684.5305,1065.7252,683.6881,1064.4614,683.3269,1064.2203C682.966,1063.9796,682.1235,1062.6559,681.4614,1061.2716C680.0771,1058.5627,677.73016,1054.471,675.6238,1051.1611C674.8413,1050.078,674.23944,1048.8743,674.23944,1048.6337C674.23944,1048.3328,673.45734,1047.0085,672.55444,1045.6244C670.32776,1042.254,669.72595,1041.2909,667.6196,1037.2592C666.6567,1035.393,665.57336,1033.7079,665.2723,1033.4678C664.9114,1033.2866,664.06866,1031.9624,663.4067,1030.578C662.74475,1029.1938,661.24023,1026.5461,660.0968,1024.7406C658.9533,1022.9353,657.44867,1020.28723,656.78687,1018.9032C656.12476,1017.5189,655.2822,1016.1952,654.921,1015.95386C654.56024,1015.7141,653.71765,1014.3296,652.99554,1012.7655C652.33344,1011.26086,651.25024,1009.2748,650.528,1008.3723C649.80585,1007.5298,648.48175,1005.48364,647.57904,1003.85864C646.6163,1002.2937,645.29224,1000.067,644.57007,998.9236C641.56085,994.229,640.77856,993.02563,639.6351,991.09985C638.973,990.0161,637.8295,988.2711,637.1074,987.18823C636.3853,986.1647,635.36237,984.3596,634.8206,983.21594C634.27905,982.07227,633.3763,980.5682,632.7746,979.90607C632.17267,979.24396,631.2098,977.8598,630.668,976.89703C630.12646,975.87396,629.0432,974.2487,628.3211,973.16583C627.5989,972.1425,626.21466,969.8554,625.1915,968.17096C624.2286,966.425,622.8446,964.31854,622.1824,963.47614C619.7752,960.28656,616.4653,954.4495,616.4653,953.24554C616.4653,952.6436,617.3079,951.0788,618.27075,949.81476C619.29364,948.5512,620.0761,947.3476,620.0761,947.10675C620.0761,946.86615,620.6178,946.0234,621.34,945.24115C622.06213,944.4587,624.10834,941.63007,625.8537,938.98285C627.6592,936.33514,630.0663,932.965,631.2099,931.46063C632.3532,929.95575,633.97797,927.789,634.8206,926.5253C635.6029,925.32135,636.8667,923.6966,637.6491,922.85443C638.4315,922.01154,639.9961,920.0855,641.1396,918.5208C645.05176,913.22504,661.6012,894.0867,666.0547,889.7539C684.22974,871.8795,698.3122,862.07056,715.16266,855.44995C721.0005,853.16296,731.05084,850.6953,736.8282,850.214C744.7722,849.552,746.03595,849.552,753.85956,850.27466 Z M384.16528,866.16376C388.31787,866.6453,393.13226,867.367,394.87756,867.7282C399.39105,868.6313,410.1635,872.18195,412.87177,873.6265C414.13565,874.2891,416.3624,875.4327,417.8669,876.09454C435.13885,883.9785,457.767,903.4164,477.5666,927.3679C479.61267,929.8952,483.16357,934.22943,485.39026,936.99725C487.617,939.70526,489.96405,942.654,490.68628,943.4965C491.3482,944.3394,492.9732,946.5058,494.29712,948.3116C497.54697,952.82513,499.71347,955.7741,501.81985,958.482C502.84293,959.8062,504.58817,962.2133,505.73148,963.9583C506.87497,965.6434,508.55997,967.93,509.5228,969.0136C510.4255,970.1573,511.14767,971.30023,511.14767,971.60114C511.14767,971.96234,511.68936,972.685,512.35144,973.2861C514.0967,974.8514,513.79584,977.0778,511.38852,980.50824C510.2451,982.1335,508.25912,984.9616,507.0555,986.7673C505.0093,989.716,504.22702,990.92,500.67642,996.2163C500.01443,997.1792,498.81082,998.98413,497.9681,1000.24805C497.12546,1001.5117,495.98206,1003.1974,495.5006,1003.91943C495.01923,1004.70166,494.11652,1005.96545,493.5147,1006.74805C492.91284,1007.5303,490.44543,1011.3219,487.97803,1015.1133C482.80255,1023.1177,481.4182,1025.164,479.07104,1028.2325C478.10828,1029.4363,476.78424,1031.4219,476.18243,1032.5659C475.09912,1034.491,474.3169,1035.6948,470.82642,1040.6904C470.10406,1041.653,468.96066,1043.3984,468.23862,1044.5415C466.6738,1046.949,464.80832,1049.7775,461.67874,1054.2909C460.41495,1056.0962,458.97055,1058.2026,458.36874,1059.0458C457.82712,1059.888,456.14206,1062.4159,454.63748,1064.7024C453.1329,1066.9291,451.5081,1069.397,451.0267,1070.1188C449.64243,1072.1653,439.89307,1086.7902,439.1709,1087.8733C438.56915,1088.7155,432.4306,1098.1044,430.80585,1100.6316C427.97723,1105.024,426.17172,1107.7924,425.0885,1109.2968C421.59802,1114.412,419.67224,1117.422,419.67227,1117.9036C419.67227,1118.2045,419.1306,1118.9265,418.40845,1119.5885C417.68628,1120.1901,416.72336,1121.5146,416.2419,1122.5375C415.70038,1123.5009,414.7976,1125.0046,414.1357,1125.847C413.53384,1126.69,411.54788,1129.578,409.74237,1132.3467C404.62704,1139.9899,400.1135,1146.6094,398.36826,1148.897C397.52563,1150.04,396.80353,1151.244,396.80353,1151.5447C396.80353,1151.9058,396.38217,1152.5076,395.9007,1152.9282C394.998,1153.6504,393.97488,1155.0956,390.00287,1161.0531C388.1976,1163.6411,387.35507,1164.8447,384.1655,1169.2981C383.02194,1170.9225,381.09613,1173.5712,379.95267,1175.2557C378.80917,1176.9413,377.06393,1179.3483,376.04086,1180.6124C375.0779,1181.8757,373.2726,1184.163,372.12912,1185.6678C360.57425,1201.074,349.62134,1214.0132,340.83487,1222.6791C334.03436,1229.4191,325.609,1236.7612,322.4195,1238.6869C321.33624,1239.3494,318.86896,1240.8539,316.94308,1242.0579C310.80463,1245.7891,303.643,1248.4977,295.39822,1250.1825C280.77423,1253.1317,266.09012,1251.507,253.99362,1245.6088C251.28543,1244.2244,247.85518,1242.2988,246.35057,1241.2157C242.73964,1238.6871,234.91602,1230.864,232.74957,1227.6144C229.62018,1222.9203,226.4907,1217.6239,226.06953,1216.4808C225.88893,1215.8789,225.0465,1214.134,224.26408,1212.5691C223.42159,1211.0645,222.27812,1208.0559,221.67632,1205.8892C221.01433,1203.7228,219.99126,1200.4725,219.3293,1198.6674C218.66728,1196.8622,218.12561,1194.5148,218.06549,1193.552C218.06549,1192.5292,217.76456,1190.7839,217.46365,1189.64C215.9591,1184.8263,214.99622,1177.1826,214.33423,1165.6277C213.25098,1146.6709,214.99619,1110.6818,217.82465,1094.5535C218.30612,1091.7252,218.96806,1087.1515,219.32921,1084.3226C219.69038,1081.4941,220.59294,1076.3784,221.4356,1072.8882C222.21791,1069.3976,223.12065,1064.4023,223.4817,1061.7544C223.84276,1059.1066,224.80571,1054.8939,225.58803,1052.4268C226.37038,1049.9591,227.33324,1046.2268,227.69429,1044.1813C228.05537,1042.1953,228.95808,1038.6445,229.74045,1036.3582C230.52286,1034.0712,231.36539,1030.9419,231.60608,1029.4972C231.84683,1028.0535,232.68933,1025.2848,233.47168,1023.4193C234.25409,1021.4933,235.21695,1018.54456,235.578,1016.79956C235.93909,1015.05396,236.90201,1012.4061,237.62424,1010.90125C238.34637,1009.39734,239.12875,1007.1101,239.36948,1005.786C239.61023,1004.46204,240.4528,1002.1152,241.23512,1000.5505C242.07768,998.9864,242.9804,996.45807,243.34145,994.8935C243.7025,993.3288,244.48488,991.34247,245.08662,990.5002C245.6884,989.6574,246.65132,987.5516,247.1328,985.92645C247.61427,984.241,248.75777,981.7128,249.60027,980.2087C250.4428,978.70404,251.16498,976.89874,251.16498,976.17645C251.16498,975.4544,251.82709,974.12994,252.60934,973.1668C253.39172,972.2045,254.35458,970.2784,254.77582,968.77374C255.13696,967.32965,256.09985,965.3438,256.8822,964.3205C257.60437,963.29755,258.5673,961.4323,258.92844,960.22845C259.3496,958.96497,259.95142,957.761,260.3126,957.58044C260.6135,957.3397,261.69666,955.5342,262.7198,953.48804C264.28452,950.1781,265.24738,948.49316,268.91843,942.35474C271.20526,938.5625,273.61246,934.771,275.17715,932.4844C276.01965,931.28064,277.28345,929.3545,277.94553,928.2112C279.87128,925.0221,285.82907,917.3186,292.75003,909.1947C299.06897,901.7917,311.46634,889.57574,313.81345,888.4925C314.41528,888.19135,314.95685,887.77045,314.95685,887.46893C314.95685,887.2282,316.22073,886.205,317.84564,885.18207C319.41034,884.15875,321.87775,882.4737,323.38226,881.39056C329.34015,877.05743,339.87192,871.8813,348.05646,869.29364C359.73166,865.5623,371.106,864.59955,384.16528,866.16376 Z"/>
</g>
</g>
</g>
</svg>